# AST/ASF file generated using VICON BodyLanguage
# -----------------------------------------------
:version 1.10
:name VICON
:units
  mass 1.0
  length 0.45
  angle deg
:documentation
   .ast/.asf automatically generated from VICON data using
   VICON BodyBuilder and BodyLanguage model FoxedUp or BRILLIANT.MOD
:root
   order TX TY TZ RX RY RZ
   axis XYZ
   position 0 0 0  
   orientation 0 0 0 
:bonedata
  begin
     id 1 
     name lhipjoint
     direction 0.578396 -0.714046 0.394458 
     length 2.21935 
     axis 0 0 0  XYZ
  end
  begin
     id 2 
     name lfemur
     direction 0.34202 -0.939693 0  
     length 6.39105  
     axis 0 0 20  XYZ
    dof rx ry rz
    limits (-160.0 20.0)
           (-70.0 70.0)
           (-60.0 70.0)
  end
  begin
     id 3 
     name ltibia
     direction 0.34202 -0.939693 0   
     length 6.99037   
     axis 0 0 20   XYZ
    dof rx
    limits (-10.0 170.0)
  end
  begin
     id 4 
     name lfoot
     direction 0.0582372 -0.160005 0.985397   
     length 2.06111   
     axis -90 7.62852e-016 20   XYZ
    dof rx rz
    limits (-45.0 90.0)
           (-70.0 20.0)
  end
  begin
     id 5 
     name ltoes
     direction 1.53556e-011 -4.21875e-011 1   
     length 1.04074   
     axis -90 7.62852e-016 20   XYZ
    dof rx
    limits (-90.0 20.0)
  end
  begin
     id 6 
     name rhipjoint
     direction -0.558179 -0.726269 0.40121   
     length 2.182  
     axis 0 0 0  XYZ 
  end
  begin
     id 7 
     name rfemur
     direction -0.34202 -0.939693 0   
     length 6.51172   
     axis 0 0 -20   XYZ
    dof rx ry rz
    limits (-160.0 20.0)
           (-70.0 70.0)
           (-70.0 60.0)
  end
  begin
     id 8 
     name rtibia
     direction -0.34202 -0.939693 0   
     length 7.02607   
     axis 0 0 -20   XYZ
    dof rx
    limits (-10.0 170.0)
 end
 begin
     id 9 
     name rfoot
     direction -0.0788856 -0.216737 0.973038   
     length 1.96734  
     axis -90 -7.62852e-016 -20   XYZ
    dof rx rz
    limits (-45.0 90.0)
           (-20.0 70.0)
  end
  begin
     id 10 
     name rtoes
     direction -1.53567e-011 -4.21783e-011 1   
     length 0.990825   
     axis -90 -7.62852e-016 -20   XYZ
    dof rx
    limits (-90.0 20.0)
  end
  begin
     id 11 
     name lowerback
     direction 0.00668177 0.999323 -0.0361741   
     length 1.7655   
     axis 0 0 0   XYZ
    dof rx ry rz
    limits (-20.0 45.0)
           (-30.0 30.0)
           (-30.0 30.0)
  end
  begin
     id 12 
     name upperback
     direction -0.00222086 0.99851 0.0545167   
     length 1.74912   
     axis 0 0 0   XYZ
    dof rx ry rz
    limits (-20.0 45.0)
           (-30.0 30.0)
           (-30.0 30.0)
  end
  begin
     id 13 
     name thorax
     direction -0.00733971 0.997496 0.0703443   
     length 1.75715   
     axis 0 0 0   XYZ
    dof rx ry rz
    limits (-20.0 45.0)
           (-30.0 30.0)
           (-30.0 30.0)
  end
  begin
     id 14 
     name lowerneck
     direction 0.0279797 0.994795 0.0979765   
     length 1.46939   
     axis 0 0 0   XYZ
    dof rx ry rz
    limits (-20.0 45.0)
           (-30.0 30.0)
           (-30.0 30.0)
  end
  begin
     id 15 
     name upperneck
     direction 0.00339187 0.976776 -0.214238   
     length 1.48018   
     axis 0 0 0   XYZ
    dof rx ry rz
    limits (-20.0 45.0)
           (-30.0 30.0)
           (-30.0 30.0)
  end
  begin
     id 16
     name head
     direction -0.00263506 0.996603 -0.0823096  
     length 1.4976  
     axis 0 0 0   XYZ
    dof rx ry rz
    limits (-20.0 45.0)
           (-30.0 30.0)
           (-30.0 30.0)
  end
  begin
     id 17 
     name lclavicle
     direction 0.894044 0.44508 -0.0508781  
     length 3.03024  
     axis 0 0 0   XYZ
    dof ry rz
    limits (-20.0 10.0)
           (0.0 20.0)
  end
  begin
     id 18 
     name lhumerus
     direction 1 -4.48961e-011 -2.39475e-018   
     length 4.4661   
     axis 180 -30 -90   XYZ
    dof rx ry rz
    limits (-60.0 90.0)
           (-90.0 90.0)
           (-90.0 90.0)
  end
  begin
     id 19
     name lradius
     direction 1 -4.48961e-011 9.29328e-028   
     length 3.41414   
     axis 180 -30 -90   XYZ
    dof rx
    limits (-10.0 170.0)
  end
  begin
     id 20
     name lwrist
     direction 1 -4.48985e-011 1.53461e-026   
     length 1.70707   
     axis -1.09697e-014 90 90   XYZ
    dof ry
    limits (-180.0 0.0)
 end
  begin
     id 21 
     name lhand
     direction 1 -4.48966e-011 3.06923e-026   
     length 0.328298   
     axis -1.95843e-014 90 90   XYZ
    dof rx rz
    limits (-90.0 90.0)
           (-45.0 45.0)
  end
  begin
     id 22 
     name lfingers
     direction 1 -4.48893e-011 6.13845e-026   
     length 0.264682   
     axis -3.91686e-014 90 90   XYZ
    dof rx
    limits (0.0 90.0)
  end
  begin
     id 23
     name lthumb
     direction 0.707107 -6.34876e-011 0.707107   
     length 0.380032   
     axis -90 45 2.85299e-015   XYZ
    dof rx rz
    limits (-45.0 45.0)
           (-45.0 45.0)
  end
  begin
     id 24 
     name rclavicle
     direction -0.936955 0.347862 -0.0332887   
     length 3.26927  
     axis 0 0 0   XYZ 
    dof ry rz
    limits (-10.0 20.0)
           (-20.0 0.0)
  end
  begin
     id 25 
     name rhumerus
     direction -1 -4.4896e-011 1.78637e-018  
     length 4.40431   
     axis 180 30 90   XYZ
    dof rx ry rz
    limits (-90.0 60.0)
           (-90.0 90.0)
           (-90.0 90.0)
  end
  begin
     id 26 
     name rradius
     direction -1 -4.48955e-011 9.34036e-027   
     length 3.04688   
     axis 180 30 90   XYZ
    dof rx
    limits (-10.0 170.0)
  end
  begin
     id 27 
     name rwrist
     direction -1 -4.49011e-011 1.53461e-026   
     length 1.52344   
     axis -1.09697e-014 -90 -90   XYZ
    dof ry
    limits (-180.0 0.0)
  end
  begin
     id 28
     name rhand
     direction -1 -4.48834e-011 3.06923e-026   
     length 0.500489   
     axis -1.95843e-014 -90 -90   XYZ
    dof rx rz
    limits (-90.0 90.0)
           (-45.0 45.0)
  end
  begin
     id 29
     name rfingers
     direction -1 -4.48967e-011 6.13845e-026   
     length 0.403507   
     axis -3.91686e-014 -90 -90   XYZ
    dof rx
    limits (0.0 90.0)
  end
  begin
     id 30
     name rthumb
     direction -0.707107 -6.34826e-011 0.707107   
     length 0.579358   
     axis -90 -45 -2.85299e-015   XYZ
    dof rx rz
    limits (-45.0 45.0)
           (-45.0 45.0)
  end
:hierarchy
  begin
    root lhipjoint rhipjoint lowerback
    lhipjoint lfemur
    lfemur ltibia
    ltibia lfoot
    lfoot ltoes
    rhipjoint rfemur
    rfemur rtibia
    rtibia rfoot
    rfoot rtoes
    lowerback upperback
    upperback thorax
    thorax lowerneck lclavicle rclavicle
    lowerneck upperneck
    upperneck head
    lclavicle lhumerus
    lhumerus lradius
    lradius lwrist
    lwrist lhand lthumb
    lhand lfingers
    rclavicle rhumerus
    rhumerus rradius
    rradius rwrist
    rwrist rhand rthumb
    rhand rfingers
  end

#!OML:ASF H:\IndianDance\Patient Classification 1\Patient 1\Session 1\dancer.ASF
:FULLY-SPECIFIED
:DEGREES
1750
root 5.39587 15.1335 -10.0826 -172.871 -2.48898 -174.271
lowerback 4.96772 1.67362 2.31947
upperback -6.68425 2.23509 0.784315
thorax -9.81971 0.815909 -0.737915
lowerneck -17.4972 -0.753593 -1.07057
upperneck 21.1517 -1.70925 2.20193
head 9.61242 -0.79709 0.687151
rclavicle 1.96548e-014 2.38542e-015
rhumerus -7.85779 54.9771 -33.3153
rradius 116.014
rwrist -43.8901
rhand -17.1816 -1.35322
rfingers 7.12502
rthumb 9.06012 -31.1386
lclavicle 1.96548e-014 2.38542e-015
lhumerus 28.6122 -55.4416 -4.01534
lradius 114.623
lwrist 27.7778
lhand -32.2344 19.6209
lfingers 7.12502
lthumb -5.47502 49.5301
rfemur -29.5433 -22.763 32.3046
rtibia 53.0651
rfoot -19.0858 -9.39532
rtoes -3.58275
lfemur -40.9626 24.9886 -21.4605
ltibia 56.4523
lfoot -15.8877 1.47528
ltoes 0.831797
1751
root 5.36987 15.1252 -10.13 -172.847 -2.14029 -174.299
lowerback 4.70809 1.71224 2.36765
upperback -6.73087 2.2767 0.870818
thorax -9.71675 0.831599 -0.670184
lowerneck -17.3826 -0.84563 -1.05335
upperneck 21.0344 -1.84024 2.20564
head 9.55236 -0.85718 0.668422
rclavicle -9.93923e-017 8.34896e-015
rhumerus -7.66065 55.0626 -33.2762
rradius 116.204
rwrist -44.8832
rhand -16.6951 -1.69346
rfingers 7.12502
rthumb 9.52956 -31.458
lclavicle -9.93923e-017 8.34896e-015
lhumerus 28.8722 -55.5045 -3.81733
lradius 115.299
lwrist 28.4238
lhand -31.3803 19.1244
lfingers 7.12502
lthumb -4.6504 49.0534
rfemur -29.5051 -22.7677 32.0575
rtibia 53.3968
rfoot -19.0929 -9.1231
rtoes -4.17918
lfemur -40.1219 24.6553 -21.8574
ltibia 55.0043
lfoot -16.9587 3.40772
ltoes 2.75251
1752
root 5.34322 15.1196 -10.176 -172.865 -1.77749 -174.344
lowerback 4.49779 1.74672 2.39661
upperback -6.76946 2.3133 0.951212
thorax -9.63516 0.84642 -0.598952
lowerneck -17.2774 -0.947176 -1.06076
upperneck 20.9661 -1.99031 2.24074
head 9.51226 -0.925935 0.662105
rclavicle 2.90723e-014 7.95139e-016
rhumerus -7.45579 55.1612 -33.2683
rradius 116.387
rwrist -46.0429
rhand -16.0428 -2.05526
rfingers 7.12502
rthumb 10.1589 -31.79
lclavicle 2.90723e-014 7.95139e-016
lhumerus 29.136 -55.5818 -3.64054
lradius 115.975
lwrist 29.1074
lhand -30.4348 18.5446
lfingers 7.12502
lthumb -3.73738 48.4916
rfemur -29.4485 -22.7928 31.7674
rtibia 53.7749
rfoot -19.036 -8.81918
rtoes -4.84302
lfemur -39.2046 24.2586 -22.1782
ltibia 53.7642
lfoot -17.9824 5.35151
ltoes 4.8984
1753
root 5.31575 15.1163 -10.2201 -172.925 -1.40524 -174.397
lowerback 4.35072 1.77169 2.4146
upperback -6.80141 2.33953 1.02798
thorax -9.58468 0.857175 -0.526008
lowerneck -17.1897 -1.05407 -1.08242
upperneck 20.9452 -2.154 2.29841
head 9.49282 -1.00071 0.664034
rclavicle 7.30534e-015 -3.97569e-016
rhumerus -7.24283 55.2675 -33.3048
rradius 116.552
rwrist -47.344
rhand -15.2159 -2.42709
rfingers 7.12502
rthumb 10.9565 -32.1212
lclavicle 7.30534e-015 -3.97569e-016
lhumerus 29.3721 -55.6683 -3.45375
lradius 116.633
lwrist 29.7792
lhand -29.3299 17.8558
lfingers 7.12502
lthumb -2.67033 47.8188
rfemur -29.3987 -22.8462 31.4445
rtibia 54.2291
rfoot -18.8879 -8.45027
rtoes -5.48979
lfemur -38.2508 23.7844 -22.4031
ltibia 52.729
lfoot -18.935 7.17709
ltoes 6.72058
1754
root 5.28768 15.1149 -10.2616 -173.021 -1.02708 -174.454
lowerback 4.27925 1.79241 2.4258
upperback -6.83141 2.36351 1.10021
thorax -9.57744 0.867232 -0.456087
lowerneck -17.1087 -1.17695 -1.13288
upperneck 20.9611 -2.34345 2.38534
head 9.48888 -1.08755 0.677345
rclavicle -2.98177e-016 -7.15625e-015
rhumerus -7.07295 55.3655 -33.4229
rradius 116.705
rwrist -48.7851
rhand -14.1347 -2.7812
rfingers 7.12502
rthumb 11.9992 -32.4172
lclavicle -2.98177e-016 -7.15625e-015
lhumerus 29.5976 -55.7565 -3.2444
lradius 117.239
lwrist 30.3697
lhand -28.0216 17.0648
lfingers 7.12502
lthumb -1.40675 47.0399
rfemur -29.3906 -22.9292 31.0968
rtibia 54.7998
rfoot -18.6226 -7.99439
rtoes -6.05301
lfemur -37.3135 23.2408 -22.5268
ltibia 51.8881
lfoot -19.7719 8.693
ltoes 8.50477
1755
root 5.25939 15.1147 -10.3001 -173.146 -0.645206 -174.522
lowerback 4.28001 1.80525 2.42086
upperback -6.85607 2.37975 1.16471
thorax -9.60797 0.874825 -0.386623
lowerneck -17.0438 -1.31352 -1.18974
upperneck 21.0008 -2.55555 2.48312
head 9.4973 -1.18469 0.692328
rclavicle 1.46852e-014 4.96962e-015
rhumerus -6.95064 55.4436 -33.6311
rradius 116.848
rwrist -50.3361
rhand -12.736 -3.10257
rfingers 7.12502
rthumb 13.3477 -32.6551
lclavicle 1.46852e-014 4.96962e-015
lhumerus 29.7941 -55.8321 -3.01654
lradius 117.803
lwrist 30.8479
lhand -26.4898 16.1473
lfingers 7.12502
lthumb 0.0726928 46.1271
rfemur -29.4646 -23.0401 30.7206
rtibia 55.5309
rfoot -18.2182 -7.45269
rtoes -6.54641
lfemur -36.4422 22.6684 -22.577
ltibia 51.2267
lfoot -20.4444 9.9076
ltoes 9.79129
1756
root 5.23146 15.1149 -10.3356 -173.291 -0.259355 -174.613
lowerback 4.34034 1.31636 2.3485
upperback -6.85872 2.50084 1.26213
thorax -9.66737 1.27049 -0.316567
lowerneck -16.9986 -1.46993 -1.26147
upperneck 21.0476 -2.79699 2.60115
head 9.51341 -1.29432 0.712772
rclavicle 4.74598e-015 6.36111e-015
rhumerus -6.90045 55.4865 -33.9413
rradius 116.992
rwrist -51.9637
rhand -11.0762 -3.40763
rfingers 7.12502
rthumb 14.9471 -32.8483
lclavicle 4.74598e-015 6.36111e-015
lhumerus 29.9566 -55.881 -2.77569
lradius 118.331
lwrist 31.1918
lhand -24.7616 15.1244
lfingers 7.12502
lthumb 1.7418 45.097
rfemur -29.6588 -23.1771 30.306
rtibia 56.4599
rfoot -17.6585 -6.80794
rtoes -6.87055
lfemur -35.672 22.1266 -22.5933
ltibia 50.731
lfoot -20.9492 10.8521
ltoes 10.6397
1757
root 5.2047 15.1145 -10.3684 -173.447 0.13001 -174.74
lowerback 4.44381 1.32247 2.26201
upperback -6.85961 2.50465 1.29435
thorax -9.73483 1.27768 -0.237825
lowerneck -16.9833 -1.64816 -1.32552
upperneck 21.0918 -3.06852 2.71334
head 9.53515 -1.41723 0.725734
rclavicle 7.03201e-015 -4.17448e-015
rhumerus -6.92709 55.483 -34.3273
rradius 117.159
rwrist -53.6394
rhand -9.20332 -3.7141
rfingers 7.12502
rthumb 16.7507 -33.0115
lclavicle 7.03201e-015 -4.17448e-015
lhumerus 30.0745 -55.8801 -2.52284
lradius 118.832
lwrist 31.4086
lhand -22.8763 14.0266
lfingers 7.12502
lthumb 3.56256 43.9765
rfemur -30.0003 -23.3382 29.8429
rtibia 57.6064
rfoot -16.9304 -6.06764
rtoes -6.97565
lfemur -35.0171 21.6794 -22.6196
ltibia 50.3868
lfoot -21.2665 11.5823
ltoes 11.0869
1758
root 5.17972 15.1129 -10.3989 -173.607 0.522639 -174.918
lowerback 4.56727 1.33264 2.11123
upperback -6.84316 2.50162 1.30172
thorax -9.79617 1.28362 -0.148798
lowerneck -16.9853 -1.85546 -1.40216
upperneck 21.1057 -3.37745 2.84126
head 9.55149 -1.5557 0.741222
rclavicle -7.10655e-015 -1.63003e-014
rhumerus -7.01844 55.4268 -34.7501
rradius 117.362
rwrist -55.3027
rhand -7.30203 -4.04489
rfingers 7.12502
rthumb 18.5803 -33.1775
lclavicle -7.10655e-015 -1.63003e-014
lhumerus 30.13 -55.8189 -2.2702
lradius 119.334
lwrist 31.5074
lhand -20.8911 12.8781
lfingers 7.12502
lthumb 5.47948 42.7872
rfemur -30.504 -23.5249 29.323
rtibia 58.9685
rfoot -16.0415 -5.25407
rtoes -6.82375
lfemur -34.4753 21.3874 -22.7001
ltibia 50.1701
lfoot -21.4345 12.0602
ltoes 11.3469
1759
root 5.15693 15.1099 -10.4279 -173.765 0.917869 -175.15
lowerback 4.69064 1.34413 1.90081
upperback -6.80848 2.48722 1.27842
thorax -9.83799 1.2858 -0.0570129
lowerneck -16.9881 -2.09068 -1.49289
upperneck 21.0683 -3.72249 2.99458
head 9.55247 -1.70827 0.763186
rclavicle 2.40529e-014 2.72335e-014
rhumerus -7.14973 55.3288 -35.1722
rradius 117.604
rwrist -56.8639
rhand -5.41347 -4.35329
rfingers 7.12502
rthumb 20.3961 -33.3022
lclavicle 2.40529e-014 2.72335e-014
lhumerus 30.1039 -55.6783 -2.04334
lradius 119.861
lwrist 31.5211
lhand -18.873 11.7375
lfingers 7.12502
lthumb 7.42777 41.5871
rfemur -31.1643 -23.7426 28.7512
rtibia 60.5206
rfoot -15.0291 -4.40874
rtoes -6.37084
lfemur -34.0264 21.2783 -22.8567
ltibia 50.0439
lfoot -21.4739 12.3692
ltoes 11.2325
1760
root 5.13626 15.1056 -10.4559 -173.916 1.31674 -175.436
lowerback 4.7974 1.36047 1.63184
upperback -6.7591 2.46671 1.22291
thorax -9.85416 1.28711 0.0350827
lowerneck -16.97 -2.35783 -1.60062
upperneck 20.9631 -4.10855 3.17812
head 9.52889 -1.87745 0.79343
rclavicle -2.21893e-014 -1.23246e-014
rhumerus -7.30584 55.2015 -35.5407
rradius 117.889
rwrist -58.2092
rhand -3.77223 -4.58022
rfingers 7.12502
rthumb 21.9727 -33.3523
lclavicle -2.21893e-014 -1.23246e-014
lhumerus 30.0017 -55.4491 -1.8554
lradius 120.408
lwrist 31.4719
lhand -16.8218 10.5821
lfingers 7.12502
lthumb 9.4073 40.3522
rfemur -31.9634 -23.9737 28.134
rtibia 62.2195
rfoot -13.9415 -3.61076
rtoes -5.62292
lfemur -33.6401 21.3517 -23.105
ltibia 49.9629
lfoot -21.4802 12.5653
ltoes 10.8706
1761
root 5.1174 15.0999 -10.4835 -174.057 1.71733 -175.77
lowerback 4.88174 1.37772 1.31892
upperback -6.70108 2.43827 1.14059
thorax -9.84781 1.28627 0.125316
lowerneck -16.9108 -2.65507 -1.74965
upperneck 20.7881 -4.53045 3.40617
head 9.47774 -2.06211 0.841901
rclavicle -1.55301e-015 -1.15295e-014
rhumerus -7.44451 55.074 -35.7975
rradius 118.202
rwrist -59.2127
rhand -2.46515 -4.63815
rfingers 7.12502
rthumb 23.2272 -33.2574
lclavicle -1.55301e-015 -1.15295e-014
lhumerus 29.8054 -55.133 -1.70822
lradius 120.967
lwrist 31.3875
lhand -14.8738 9.5113
lfingers 7.12502
lthumb 11.2864 39.1876
rfemur -32.8763 -24.2564 27.4883
rtibia 64.0169
rfoot -12.8582 -2.89546
rtoes -4.69368
lfemur -33.2854 21.5672 -23.4337
ltibia 49.8828
lfoot -21.4661 12.718
ltoes 10.2329
1762
root 5.09959 15.0942 -10.5109 -174.193 2.11944 -176.139
lowerback 4.95028 1.394 0.986056
upperback -6.64183 2.40364 1.03301
thorax -9.83031 1.28276 0.201332
lowerneck -16.7897 -2.97958 -1.94451
upperneck 20.5439 -4.98599 3.68613
head 9.39662 -2.26201 0.91252
rclavicle -9.26834e-015 -2.5842e-015
rhumerus -7.54429 54.9613 -35.9227
rradius 118.52
rwrist -59.7658
rhand -1.49808 -4.4653
rfingers 7.12502
rthumb 24.1547 -32.9645
lclavicle -9.26834e-015 -2.5842e-015
lhumerus 29.5369 -54.7424 -1.62853
lradius 121.513
lwrist 31.2852
lhand -13.0859 8.48876
lfingers 7.12502
lthumb 13.0104 38.0631
rfemur -33.8626 -24.5816 26.8321
rtibia 65.8617
rfoot -11.888 -2.28487
rtoes -3.67415
lfemur -32.9327 21.8875 -23.8231
ltibia 49.7774
lfoot -21.3749 12.8896
ltoes 9.05147
1763
root 5.08208 15.0891 -10.5383 -174.325 2.52214 -176.526
lowerback 5.01424 1.40568 0.651304
upperback -6.58904 2.36297 0.915817
thorax -9.81702 1.27646 0.269066
lowerneck -16.6114 -3.32383 -2.1928
upperneck 20.257 -5.46184 4.00396
head 9.29622 -2.47368 1.00338
rclavicle -2.45996e-015 2.5842e-015
rhumerus -7.5705 54.8889 -35.8713
rradius 118.822
rwrist -59.7686
rhand -0.891455 -4.02706
rfingers 7.12502
rthumb 24.7362 -32.4477
lclavicle -2.45996e-015 2.5842e-015
lhumerus 29.1884 -54.298 -1.60535
lradius 122.022
lwrist 31.196
lhand -11.5037 7.47607
lfingers 7.12502
lthumb 14.5353 36.9469
rfemur -34.8887 -24.9517 26.1901
rtibia 67.7175
rfoot -11.1249 -1.79113
rtoes -2.66524
lfemur -32.5709 22.2832 -24.2478
ltibia 49.6386
lfoot -21.1221 13.1722
ltoes 6.79203
1764
root 5.06438 15.0843 -10.5655 -174.459 2.92332 -176.908
lowerback 5.0927 1.41225 0.345223
upperback -6.54978 2.31988 0.792501
thorax -9.82612 1.26726 0.313869
lowerneck -16.3748 -3.68417 -2.49019
upperneck 19.9467 -5.95663 4.35761
head 9.18384 -2.69714 1.11318
rclavicle 1.4797e-014 7.35503e-015
rhumerus -7.549 54.8607 -35.6915
rradius 119.081
rwrist -59.1902
rhand -0.578968 -3.33771
rfingers 7.12502
rthumb 25.0357 -31.717
lclavicle 1.4797e-014 7.35503e-015
lhumerus 28.786 -53.828 -1.64576
lradius 122.459
lwrist 31.1383
lhand -10.2314 6.52093
lfingers 7.12502
lthumb 15.7608 35.8992
rfemur -35.9254 -25.3591 25.5887
rtibia 69.5628
rfoot -10.6287 -1.42216
rtoes -1.68598
lfemur -32.2022 22.7308 -24.6753
ltibia 49.4777
lfoot -20.8306 13.46
ltoes 4.28936
